<svg width="344" height="100" viewBox="0 0 344 100" fill="none" xmlns="http://www.w3.org/2000/svg">
<circle cx="50" cy="50" r="50" fill="url(#paint0_radial_2740_35)"/>
<circle cx="50" cy="50" r="18.75" fill="white"/>
<path d="M135.094 26H142.51L153.664 63.5652H147.454L144.56 53.3689H132.622L129.728 63.5652H124L135.094 26ZM138.531 32.9168L134.069 48.4795H143.173L138.772 32.9168H138.531Z" fill="black"/>
<path d="M172.016 37.3888L176.176 54.9789H176.417L180.638 37.3888H185.823L179.07 63.5652H173.764L169.604 45.3193H169.363L165.142 63.5652H159.837L153.084 37.3888H158.812L163.032 54.9789H163.273L167.313 37.3888H172.016Z" fill="black"/>
<path d="M200.893 53.1901V50.328L195.768 52.6534C193.658 53.6671 192.331 54.6211 192.331 56.7081C192.331 58.6758 193.537 59.6894 195.527 59.6894C198.782 59.6894 200.893 57.2447 200.893 53.1901ZM206.56 46.0348V57.9603C206.56 59.0932 207.103 59.5106 207.887 59.5106C208.429 59.5106 208.791 59.4509 209.394 59.272V62.8497C208.429 63.5056 207.344 63.8634 205.897 63.8634C203.485 63.8634 201.496 62.4919 201.013 59.8087C199.928 62.0745 197.335 63.9826 193.778 63.9826C189.437 63.9826 186.724 61.359 186.724 57.3043C186.724 52.7727 190.04 50.9839 193.477 49.6124L200.893 46.5714V45.9752C200.893 43.2919 199.928 41.3839 197.034 41.3839C194.26 41.3839 192.934 43.0534 192.934 45.8559V46.6311H187.628V45.7963C187.628 40.5491 191.005 36.8522 197.215 36.8522C203.847 36.8522 206.56 40.4298 206.56 46.0348Z" fill="black"/>
<path d="M218.222 55.754V63.5652H212.313V26H218.222V49.3143L227.446 37.3888H233.596L224.673 48.6584L233.958 63.5652H227.446L220.573 52.713L218.222 55.754Z" fill="black"/>
<path d="M245.276 64.1019C238.523 64.1019 234.303 59.2124 234.303 51.0435V49.9106C234.303 41.682 238.584 36.8522 245.095 36.8522C252.029 36.8522 255.526 41.682 255.526 49.9106V51.6994H240.031C240.031 57.0658 241.9 59.5106 245.276 59.5106C248.411 59.5106 249.919 57.7814 250.039 54.0845H255.345C254.983 60.1665 251.667 64.1019 245.276 64.1019ZM240.031 48.1217H249.979C249.919 43.5901 248.231 41.4435 245.095 41.4435C242.02 41.4435 240.091 43.5901 240.031 48.1217Z" fill="black"/>
<path d="M265.267 48.1217V63.5652H259.358V37.3888H265.267V40.8472C266.292 38.641 268.824 36.8522 272.381 36.8522C277.747 36.8522 280.4 40.3106 280.4 45.4385V63.5652H274.491V47.1081C274.491 43.6497 273.285 41.6224 270.211 41.6224C267.015 41.6224 265.267 44.246 265.267 48.1217Z" fill="black"/>
<path d="M285.383 37.3888H291.291V63.5652H285.383V37.3888ZM285.322 33.3938V27.3714H291.352V33.3938H285.322Z" fill="black"/>
<path d="M302.42 48.1217V63.5652H296.511V37.3888H302.42V40.8472C303.445 38.641 305.977 36.8522 309.534 36.8522C314.9 36.8522 317.553 40.3106 317.553 45.4385V63.5652H311.644V47.1081C311.644 43.6497 310.439 41.6224 307.364 41.6224C304.168 41.6224 302.42 44.246 302.42 48.1217Z" fill="black"/>
<path d="M341.227 45.4981V46.2137C341.227 51.4609 337.066 54.8596 331.459 54.8596C329.831 54.8596 328.384 54.5615 327.058 54.0845C326.575 54.5019 326.214 55.0981 326.214 55.8733C326.214 57.0062 326.937 57.7217 328.444 57.7217H335.499C341.046 57.7217 343.94 60.3453 343.94 64.9366C343.94 71.1975 338.152 74 331.278 74C324.767 74 319.883 71.7342 319.883 67.0236C319.883 64.4596 321.631 62.4919 324.465 61.836C322.536 61.2398 321.511 59.5702 321.511 57.6025C321.511 55.4559 322.717 54.0248 324.887 52.8323C322.898 51.3416 321.692 49.0758 321.692 46.2137V45.4981C321.692 40.3106 325.852 36.8522 331.459 36.8522C334.052 36.8522 336.403 37.6273 338.091 38.9988C339.357 36.9714 341.709 35.6596 344 35.6596V40.4894C342.794 40.4894 341.287 40.7876 340.081 41.2646C340.804 42.4571 341.227 43.8882 341.227 45.4981ZM325.068 66.2484C325.068 68.6335 327.299 70.1242 331.278 70.1242C335.559 70.1242 338.634 68.7528 338.634 65.8907C338.634 63.6845 337.127 62.7304 334.655 62.7304H329.409C326.515 62.7304 325.068 64.1019 325.068 66.2484ZM327.359 45.6174V46.0944C327.359 48.8969 328.686 50.9839 331.459 50.9839C334.233 50.9839 335.559 48.8969 335.559 46.0944V45.6174C335.559 42.8149 334.233 40.728 331.459 40.728C328.686 40.728 327.359 42.8149 327.359 45.6174Z" fill="black"/>
<defs>
<radialGradient id="paint0_radial_2740_35" cx="0" cy="0" r="1" gradientUnits="userSpaceOnUse" gradientTransform="translate(50 50) rotate(90) scale(50)">
<stop/>
<stop offset="1" stop-opacity="0"/>
</radialGradient>
</defs>
</svg>
