<svg width="392" height="100" viewBox="0 0 392 100" fill="none" xmlns="http://www.w3.org/2000/svg">
<path d="M130.834 25H138.745L150.644 64.913H144.02L140.932 54.0795H128.197L125.11 64.913H119L130.834 25ZM134.501 32.3491L129.741 48.8845H139.453L134.758 32.3491H134.501Z" fill="#030712"/>
<path d="M170.221 37.1006L174.659 55.7901H174.916L179.418 37.1006H184.95L177.746 64.913H172.086L167.648 45.5267H167.391L162.889 64.913H157.229L150.025 37.1006H156.135L160.638 55.7901H160.895L165.204 37.1006H170.221Z" fill="#030712"/>
<path d="M201.026 53.8894V50.8484L195.559 53.3193C193.307 54.3963 191.892 55.4099 191.892 57.6273C191.892 59.718 193.179 60.795 195.301 60.795C198.774 60.795 201.026 58.1975 201.026 53.8894ZM207.071 46.287V58.9578C207.071 60.1615 207.65 60.605 208.486 60.605C209.065 60.605 209.451 60.5416 210.094 60.3516V64.1528C209.065 64.8497 207.907 65.2298 206.364 65.2298C203.791 65.2298 201.669 63.7727 201.154 60.9217C199.996 63.3292 197.231 65.3565 193.436 65.3565C188.805 65.3565 185.911 62.5689 185.911 58.2609C185.911 53.446 189.448 51.5453 193.114 50.0882L201.026 46.8571V46.2236C201.026 43.3727 199.996 41.3453 196.909 41.3453C193.951 41.3453 192.536 43.1193 192.536 46.0969V46.9205H186.876V46.0335C186.876 40.4584 190.477 36.5304 197.102 36.5304C204.177 36.5304 207.071 40.3317 207.071 46.287Z" fill="#030712"/>
<path d="M219.511 56.6137V64.913H213.208V25H219.511V49.7714L229.352 37.1006H235.912L226.393 49.0745L236.298 64.913H229.352L222.02 53.3826L219.511 56.6137Z" fill="#030712"/>
<path d="M248.372 65.4832C241.168 65.4832 236.666 60.2882 236.666 51.6087V50.405C236.666 41.6621 241.233 36.5304 248.179 36.5304C255.575 36.5304 259.306 41.6621 259.306 50.405V52.3056H242.776C242.776 58.0075 244.77 60.605 248.372 60.605C251.716 60.605 253.324 58.7677 253.453 54.8398H259.113C258.727 61.3019 255.189 65.4832 248.372 65.4832ZM242.776 48.5043H253.389C253.324 43.6894 251.523 41.4087 248.179 41.4087C244.899 41.4087 242.84 43.6894 242.776 48.5043Z" fill="#030712"/>
<path d="M269.697 48.5043V64.913H263.393V37.1006H269.697V40.7752C270.79 38.4311 273.491 36.5304 277.286 36.5304C283.01 36.5304 285.84 40.205 285.84 45.6534V64.913H279.537V47.4273C279.537 43.7528 278.251 41.5988 274.971 41.5988C271.562 41.5988 269.697 44.3863 269.697 48.5043Z" fill="#030712"/>
<path d="M326.99 53.8261C326.99 60.795 322.746 64.913 313.548 64.913H301.778V25H313.419C322.746 25 326.026 29.3081 326.026 35.5801C326.026 40.5217 323.196 43.4994 318.822 44.2596C323.582 44.8932 326.99 48.2509 326.99 53.8261ZM313.419 46.9205H308.081V59.6547H313.419C318.629 59.6547 320.687 57.4373 320.687 53.3193C320.687 49.2646 318.629 46.9205 313.419 46.9205ZM308.081 30.2584V41.9155H312.905C318.05 41.9155 319.658 39.5714 319.658 36.1503C319.658 32.6658 318.05 30.2584 312.905 30.2584H308.081Z" fill="#030712"/>
<path d="M331.103 25H337.406V64.913H331.103V25Z" fill="#030712"/>
<path d="M353.265 60.6683C356.802 60.6683 358.732 57.8807 358.732 52.1789V49.7714C358.732 44.1329 356.802 41.3453 353.265 41.3453C349.727 41.3453 347.798 44.1329 347.798 49.7714V52.1789C347.798 57.8807 349.727 60.6683 353.265 60.6683ZM353.265 65.4832C346.061 65.4832 341.559 60.2882 341.559 51.6087V50.405C341.559 41.6621 346.061 36.5304 353.265 36.5304C360.468 36.5304 364.971 41.6621 364.971 50.405V51.6087C364.971 60.2882 360.468 65.4832 353.265 65.4832Z" fill="#030712"/>
<path d="M389.041 45.7168V46.477C389.041 52.0522 384.603 55.6634 378.622 55.6634C376.885 55.6634 375.342 55.3466 373.927 54.8398C373.412 55.2832 373.026 55.9168 373.026 56.7404C373.026 57.9441 373.798 58.7043 375.406 58.7043H382.931C388.848 58.7043 391.936 61.4919 391.936 66.3702C391.936 73.0224 385.761 76 378.429 76C371.483 76 366.273 73.5925 366.273 68.5876C366.273 65.8634 368.138 63.7727 371.161 63.0758C369.103 62.4422 368.01 60.6683 368.01 58.5776C368.01 56.2969 369.296 54.7764 371.611 53.5093C369.489 51.9255 368.202 49.518 368.202 46.477V45.7168C368.202 40.205 372.64 36.5304 378.622 36.5304C381.388 36.5304 383.896 37.354 385.697 38.8112C387.048 36.6571 389.556 35.2634 392 35.2634V40.395C390.714 40.395 389.106 40.7118 387.819 41.2186C388.591 42.4857 389.041 44.0062 389.041 45.7168ZM371.804 67.764C371.804 70.2981 374.184 71.882 378.429 71.882C382.996 71.882 386.276 70.4248 386.276 67.3838C386.276 65.0398 384.668 64.0261 382.031 64.0261H376.435C373.348 64.0261 371.804 65.4832 371.804 67.764ZM374.248 45.8435V46.3503C374.248 49.328 375.663 51.5453 378.622 51.5453C381.581 51.5453 382.996 49.328 382.996 46.3503V45.8435C382.996 42.8658 381.581 40.6484 378.622 40.6484C375.663 40.6484 374.248 42.8658 374.248 45.8435Z" fill="#030712"/>
<circle cx="50" cy="50" r="50" fill="url(#paint0_radial_2737_33)"/>
<circle cx="50" cy="50" r="18.75" fill="white"/>
<defs>
<radialGradient id="paint0_radial_2737_33" cx="0" cy="0" r="1" gradientUnits="userSpaceOnUse" gradientTransform="translate(50 50) rotate(90) scale(50)">
<stop/>
<stop offset="1" stop-opacity="0"/>
</radialGradient>
</defs>
</svg>
