<svg width="499" height="100" viewBox="0 0 499 100" fill="none" xmlns="http://www.w3.org/2000/svg">
<circle cx="50" cy="50" r="50" fill="url(#paint0_radial_1246_52)"/>
<circle cx="50" cy="50" r="18.75" fill="black"/>
<path d="M156.107 32.0732V25.5806H124.208V32.7083H146.558L124 68.4883V74.9809H156.315V67.8529H133.48L156.107 32.0732Z" fill="white"/>
<path d="M185.344 41.3886C182.784 39.8836 179.82 39.1308 176.453 39.1304C172.946 39.1304 169.855 39.9184 167.18 41.4945C164.537 43.0369 162.377 45.3129 160.952 48.0578C159.476 50.8573 158.738 54.0683 158.738 57.6908C158.738 61.2668 159.488 64.419 160.987 67.1475C162.438 69.8277 164.595 72.0401 167.215 73.5342C169.867 75.0624 172.923 75.827 176.383 75.8277C178.933 75.8737 181.462 75.3435 183.787 74.2751C185.892 73.2887 187.767 71.8575 189.288 70.0762C190.775 68.3357 191.852 66.2718 192.437 64.0422H183.995C183.418 65.4727 182.429 66.6909 181.158 67.5355C179.866 68.4067 178.274 68.8419 176.383 68.8412C174.717 68.8638 173.074 68.4507 171.609 67.6414C170.16 66.823 168.971 65.5986 168.184 64.1128C167.436 62.6987 167.01 61.1308 166.938 59.5258H193.267C193.356 58.9182 193.402 58.305 193.406 57.6908V56.1382C193.45 53.1185 192.722 50.1391 191.295 47.493C189.898 44.94 187.839 42.8282 185.344 41.3886ZM167.088 54.021C167.259 52.8422 167.642 51.7059 168.218 50.669C169.035 49.1991 170.247 47.9989 171.713 47.2107C173.175 46.4321 174.803 46.0322 176.453 46.0463C178.805 46.0463 180.789 46.7638 182.403 48.1988C184.018 49.6346 184.894 51.5753 185.033 54.0209L167.088 54.021Z" fill="white"/>
<path d="M218.385 39.1305C216.03 39.0841 213.704 39.668 211.638 40.8242C209.717 41.9138 208.108 43.4948 206.968 45.4115V39.9773H198.664V74.981H206.968V56.9145C206.968 53.5272 207.81 50.916 209.493 49.0811C210.295 48.1875 211.274 47.4795 212.367 47.0047C213.459 46.5299 214.638 46.2994 215.825 46.3287C218.408 46.3287 220.334 47.1403 221.603 48.7635C222.871 50.3868 223.505 52.7745 223.506 55.9267V74.981H231.809V55.0798C231.809 49.8573 230.633 45.8934 228.28 43.1883C225.928 40.4836 222.629 39.131 218.385 39.1305Z" fill="white"/>
<path d="M265.956 27.5565C263.442 26.2399 260.247 25.5812 256.373 25.5806H238.797V74.9809H247.1V55.5736H256.373C260.293 55.5736 263.51 54.8915 266.025 53.5271C268.539 52.1631 270.396 50.34 271.596 48.0578C272.797 45.7686 273.416 43.2087 273.395 40.6124C273.44 37.9304 272.808 35.2816 271.561 32.92C270.338 30.6618 268.47 28.874 265.956 27.5565ZM262.842 46.5052C261.435 47.941 259.117 48.6585 255.888 48.6577H247.1V32.4965H255.888C259.117 32.4965 261.435 33.214 262.842 34.649C264.249 36.0848 264.953 38.0726 264.953 40.6124C264.953 43.1067 264.249 45.0709 262.842 46.5052Z" fill="white"/>
<path d="M301.524 41.3886C298.964 39.8836 296 39.1308 292.632 39.1304C289.126 39.1304 286.035 39.9184 283.36 41.4945C280.717 43.0369 278.557 45.3129 277.132 48.0578C275.655 50.8573 274.917 54.0683 274.918 57.6908C274.918 61.2668 275.668 64.4191 277.167 67.1475C278.617 69.8277 280.775 72.0401 283.395 73.5342C286.047 75.0625 289.103 75.827 292.563 75.8277C295.113 75.8738 297.642 75.3435 299.967 74.2751C302.072 73.2887 303.947 71.8575 305.468 70.0763C306.954 68.3357 308.031 66.2718 308.617 64.0422H300.175C299.597 65.4727 298.608 66.6909 297.338 67.5355C296.045 68.4067 294.454 68.842 292.563 68.8412C290.897 68.8638 289.253 68.4508 287.788 67.6414C286.34 66.8231 285.151 65.5986 284.363 64.1128C283.615 62.6987 283.19 61.1308 283.118 59.5258H309.447C309.535 58.9182 309.582 58.3051 309.585 57.6908V56.1382C309.629 53.1185 308.902 50.1391 307.475 47.493C306.078 44.9401 304.019 42.8282 301.524 41.3886ZM283.268 54.021C283.439 52.8422 283.822 51.7059 284.398 50.669C285.214 49.1991 286.427 47.9989 287.892 47.2107C289.355 46.4321 290.983 46.0322 292.632 46.0463C294.985 46.0463 296.968 46.7638 298.583 48.1988C300.197 49.6346 301.074 51.5753 301.213 54.0209L283.268 54.021Z" fill="white"/>
<path d="M326.534 41.2123C325.095 42.2905 323.932 43.7066 323.143 45.3407V39.9772H314.84V74.9809H323.143V59.3845C323.143 56.6565 323.42 54.3864 323.974 52.5742C324.528 50.7637 325.346 49.4229 326.43 48.5517C327.514 47.6816 328.863 47.2464 330.478 47.246H335.945V39.6949H331.309C329.599 39.6666 327.925 40.1984 326.534 41.2123Z" fill="white"/>
<path d="M364.247 56.8793C363.167 56.1407 361.991 55.5587 360.753 55.1501C359.528 54.7366 358.264 54.4528 356.982 54.3032C356.474 54.2096 355.851 54.1037 355.113 53.9856C354.375 53.8688 353.649 53.7512 352.934 53.633C352.218 53.5161 351.63 53.4103 351.169 53.3154C347.986 52.7508 346.395 51.504 346.395 49.5749C346.395 48.4932 346.902 47.5876 347.917 46.8581C348.931 46.129 350.361 45.7643 352.207 45.764C353.746 45.7204 355.266 46.1112 356.601 46.8934C357.823 47.6463 358.503 48.799 358.642 50.3514H366.738C366.369 46.6815 364.916 43.8938 362.379 41.9885C359.842 40.0832 356.451 39.1305 352.207 39.1304C347.963 39.1304 344.699 40.1889 342.416 42.306C341.32 43.2785 340.445 44.4834 339.854 45.8364C339.262 47.1895 338.968 48.6581 338.991 50.1394C338.991 52.2104 339.463 53.9513 340.409 55.362C341.368 56.7864 342.666 57.9396 344.18 58.714C345.77 59.5453 347.473 60.1281 349.232 60.4429C350.016 60.6316 350.95 60.8081 352.034 60.9725C353.118 61.1379 354.029 61.2907 354.767 61.4311C356.705 61.7133 358.054 62.125 358.815 62.6661C359.182 62.9169 359.48 63.2594 359.68 63.661C359.879 64.0625 359.975 64.5097 359.957 64.9597C359.957 66.1835 359.392 67.2069 358.262 68.0297C357.131 68.8532 355.528 69.2648 353.453 69.2644C351.422 69.2644 349.704 68.7822 348.298 67.8177C347.626 67.3794 347.05 66.8059 346.604 66.1325C346.158 65.459 345.851 64.6998 345.703 63.9012H337.191C337.607 67.6182 339.267 70.5351 342.174 72.652C345.08 74.7693 348.747 75.8278 353.176 75.8277C356.266 75.8277 358.896 75.3337 361.064 74.3457C363.232 73.3579 364.881 71.9935 366.012 70.2526C367.16 68.4484 367.751 66.334 367.707 64.1835C367.707 62.3959 367.396 60.9139 366.773 59.7374C366.173 58.5882 365.306 57.6067 364.247 56.8793Z" fill="white"/>
<path d="M398.987 41.4239C396.264 39.8956 393.173 39.1311 389.714 39.1303C386.506 39.0907 383.34 39.8797 380.511 41.4239C377.786 42.9116 375.512 45.1327 373.938 47.8459C372.322 50.5983 371.515 53.8094 371.516 57.4792C371.516 61.1025 372.323 64.3017 373.938 67.0768C375.497 69.7991 377.759 72.0327 380.477 73.5342C383.332 75.0412 386.5 75.8277 389.714 75.8277C392.929 75.8277 396.097 75.0412 398.952 73.5342C401.67 72.032 403.931 69.7986 405.491 67.0768C407.105 64.3015 407.913 61.1022 407.913 57.4792C407.913 53.8093 407.106 50.5982 405.491 47.8459C403.93 45.1468 401.682 42.928 398.987 41.4239ZM398.018 63.5836C397.222 65.1229 396.009 66.3966 394.523 67.2532C393.045 68.0639 391.393 68.4882 389.714 68.4882C388.036 68.4882 386.384 68.0639 384.905 67.2532C383.42 66.3969 382.207 65.1231 381.411 63.5836C380.534 61.9603 380.095 59.9255 380.096 57.4792C380.096 55.0331 380.534 52.9982 381.411 51.3745C382.213 49.8278 383.439 48.5528 384.94 47.7049C386.425 46.8793 388.092 46.4542 389.784 46.4698C391.442 46.4575 393.074 46.883 394.523 47.7049C396.009 48.5617 397.221 49.8354 398.018 51.3745C398.893 52.9978 399.332 55.0327 399.333 57.4792C399.333 59.9257 398.894 61.9605 398.018 63.5836Z" fill="white"/>
<path d="M432.475 39.1305C430.12 39.0841 427.793 39.668 425.728 40.8242C423.807 41.9138 422.198 43.4948 421.057 45.4115V39.9773H412.754V74.981H421.057V56.9145C421.057 53.5272 421.899 50.916 423.583 49.0811C424.385 48.1875 425.364 47.4795 426.456 47.0047C427.549 46.5299 428.728 46.2994 429.915 46.3287C432.498 46.3287 434.423 47.1403 435.693 48.7635C436.961 50.3868 437.595 52.7745 437.595 55.9267V74.981H445.899V55.0798C445.899 49.8573 444.723 45.8934 442.37 43.1883C440.017 40.4836 436.719 39.131 432.475 39.1305Z" fill="white"/>
<path d="M483.923 67.4652C483.439 67.2532 483.093 66.7357 482.885 65.9125C482.678 65.0898 482.574 63.7842 482.574 61.9957V53.4564C482.574 48.94 481.178 45.4232 478.387 42.906C475.596 40.3896 471.686 39.1311 466.659 39.1304C464.257 39.1051 461.873 39.5482 459.635 40.4358C457.58 41.241 455.759 42.5643 454.342 44.282C452.958 45.976 452.127 48.0932 451.851 50.6337H459.739C460.108 48.8461 460.938 47.6111 462.23 46.9285C463.603 46.2273 465.123 45.8762 466.659 45.9053C468.918 45.9053 470.752 46.517 472.16 47.7403C473.567 48.9641 474.27 50.8695 474.27 53.4564V55.0798C473.347 54.7975 472.136 54.5034 470.637 54.1976C468.938 53.8735 467.211 53.7198 465.482 53.7387C461.238 53.7387 457.812 54.7503 455.207 56.7734C452.6 58.7967 451.297 61.6431 451.297 65.3126C451.287 67.1586 451.791 68.9695 452.75 70.5349C453.78 72.1915 455.241 73.5232 456.971 74.3811C458.816 75.3448 461.053 75.827 463.683 75.8278C466.313 75.8278 468.573 75.2632 470.465 74.1341C472.273 73.0816 473.832 71.6359 475.031 69.8997C475.677 71.9233 476.795 73.2759 478.387 73.9575C479.979 74.6401 481.951 74.9812 484.304 74.9809H486.172V67.7825H485.826C485.177 67.8066 484.53 67.6987 483.923 67.4652ZM472.437 64.995C471.761 66.2449 470.8 67.3101 469.634 68.1001C468.395 68.9013 466.949 69.3067 465.482 69.2645C463.683 69.2645 462.265 68.8294 461.227 67.9591C460.735 67.573 460.339 67.0754 460.068 66.5058C459.798 65.9362 459.662 65.3102 459.67 64.6774C459.644 63.9447 459.791 63.2163 460.098 62.5533C460.405 61.8903 460.863 61.3119 461.434 60.8665C462.611 59.9258 464.237 59.4554 466.313 59.4552C467.684 59.4539 469.052 59.5957 470.395 59.8784C471.733 60.1607 472.886 60.443 473.855 60.7253C473.642 62.2249 473.161 63.6719 472.437 64.995Z" fill="white"/>
<path d="M498.901 24.1694H490.598V74.9812H498.901V24.1694Z" fill="white"/>
<defs>
<radialGradient id="paint0_radial_1246_52" cx="0" cy="0" r="1" gradientUnits="userSpaceOnUse" gradientTransform="translate(50 50) rotate(90) scale(50)">
<stop stop-color="white"/>
<stop offset="1" stop-color="white" stop-opacity="0"/>
</radialGradient>
</defs>
</svg>
